<?xml version="1.0" encoding="UTF-8"?>
<svg xmlns="http://www.w3.org/2000/svg" xmlns:xlink="http://www.w3.org/1999/xlink" width="300px" height="300px" viewBox="0 0 300 300" version="1.1">
<g id="surface1">
<path style=" stroke:none;fill-rule:evenodd;fill:rgb(9.019608%,10.588235%,16.470589%);fill-opacity:1;" d="M 0.0742188 0 L 300 0 L 300 299.925781 L 0.0742188 299.925781 L 0.0742188 0 "/>
<path style=" stroke:none;fill-rule:evenodd;fill:rgb(80.392158%,69.01961%,38.039216%);fill-opacity:1;" d="M 121.34375 184.910156 L 121.34375 142.820312 L 115.171875 142.820312 L 115.171875 181.824219 L 113.046875 180.761719 L 113.046875 110.488281 L 150.039062 110.488281 L 150.039062 104.320312 L 106.875 104.320312 L 106.875 184.546875 L 121.34375 191.78125 L 121.34375 184.910156 "/>
<path style=" stroke:none;fill-rule:evenodd;fill:rgb(80.000001%,60.000002%,20%);fill-opacity:1;" d="M 150.035156 110.488281 L 187.027344 110.488281 L 187.027344 180.761719 L 184.902344 181.824219 L 184.902344 142.820312 L 178.730469 142.820312 L 178.730469 191.78125 L 193.199219 184.546875 C 193.199219 157.804688 193.199219 131.0625 193.199219 104.320312 L 150.039062 104.320312 L 150.035156 110.488281 "/>
<path style=" stroke:none;fill-rule:evenodd;fill:rgb(80.392158%,69.01961%,38.039216%);fill-opacity:1;" d="M 127.679688 122.554688 L 146.953125 122.554688 L 146.953125 124.894531 L 128.953125 124.894531 C 125.152344 124.894531 121.699219 126.535156 119.195312 129.183594 C 116.945312 131.5625 115.460938 134.757812 115.1875 138.304688 L 121.058594 138.304688 C 121.308594 136.464844 122.128906 134.808594 123.324219 133.546875 C 124.769531 132.015625 126.761719 131.066406 128.953125 131.066406 L 146.953125 131.066406 L 146.953125 204.375 L 150.039062 206.054688 L 150.039062 116.382812 L 127.679688 116.382812 L 127.679688 122.554688 "/>
<path style=" stroke:none;fill-rule:evenodd;fill:rgb(80.000001%,60.000002%,20%);fill-opacity:1;" d="M 171.121094 124.894531 L 153.125 124.894531 L 153.125 122.554688 L 172.394531 122.554688 L 172.394531 116.382812 L 150.039062 116.382812 L 150.039062 206.054688 L 153.125 204.375 L 153.125 131.066406 L 171.121094 131.066406 C 173.3125 131.066406 175.304688 132.015625 176.753906 133.546875 C 177.945312 134.808594 178.765625 136.464844 179.015625 138.304688 L 184.886719 138.304688 C 184.613281 134.757812 183.128906 131.5625 180.878906 129.183594 C 178.378906 126.535156 174.921875 124.894531 171.121094 124.894531 "/>
<path style=" stroke:none;fill-rule:evenodd;fill:rgb(80.392158%,69.01961%,38.039216%);fill-opacity:1;" d="M 150.039062 93.871094 L 115.390625 93.871094 L 115.390625 100.042969 L 150.039062 100.042969 L 150.039062 93.871094 "/>
<path style=" stroke:none;fill-rule:evenodd;fill:rgb(80.000001%,60.000002%,20%);fill-opacity:1;" d="M 150.039062 93.871094 L 150.039062 100.042969 L 184.683594 100.042969 L 184.683594 93.871094 L 150.039062 93.871094 "/>
<path style=" stroke:none;fill-rule:nonzero;fill:rgb(80.000001%,60.000002%,20%);fill-opacity:1;" d="M 161.839844 177.988281 C 161.84375 181.726562 161.847656 185.476562 161.851562 189.210938 C 161.855469 192.949219 161.859375 196.699219 161.863281 200.4375 C 160.800781 200.964844 159.742188 201.5 158.683594 202.027344 C 157.625 202.554688 156.566406 203.082031 155.507812 203.609375 C 155.507812 193.503906 155.507812 183.386719 155.507812 173.28125 C 155.507812 163.171875 155.507812 153.050781 155.507812 142.9375 C 156.554688 142.9375 157.609375 142.9375 158.65625 142.9375 C 159.707031 142.9375 160.757812 142.9375 161.8125 142.9375 C 161.816406 147.734375 161.820312 152.53125 161.824219 157.324219 C 161.828125 162.109375 161.832031 166.898438 161.835938 171.691406 C 163.238281 166.605469 164.628906 161.632812 166.042969 156.789062 C 167.425781 152.058594 168.84375 147.4375 170.238281 142.9375 C 171.277344 142.9375 172.316406 142.9375 173.351562 142.9375 C 174.382812 142.9375 175.425781 142.9375 176.464844 142.9375 C 174.90625 147.585938 173.328125 152.371094 171.792969 157.296875 C 170.210938 162.363281 168.671875 167.589844 167.105469 172.945312 C 168.695312 176.59375 170.261719 180.128906 171.878906 183.535156 C 173.445312 186.835938 175.070312 189.984375 176.671875 193.03125 C 175.617188 193.558594 174.5625 194.085938 173.511719 194.613281 C 172.460938 195.140625 171.40625 195.664062 170.355469 196.191406 C 168.929688 193.394531 167.488281 190.5 166.085938 187.507812 C 164.65625 184.441406 163.253906 181.253906 161.839844 177.988281 "/>
<path style=" stroke:none;fill-rule:nonzero;fill:rgb(80.392158%,69.01961%,38.039216%);fill-opacity:1;" d="M 144.566406 142.9375 C 144.566406 153.050781 144.566406 163.171875 144.566406 173.28125 C 144.566406 183.386719 144.566406 193.503906 144.566406 203.609375 C 143.515625 203.089844 142.460938 202.5625 141.410156 202.03125 C 140.355469 201.503906 139.304688 200.984375 138.253906 200.457031 C 138.246094 195.664062 138.242188 190.871094 138.242188 186.078125 C 138.238281 181.28125 138.234375 176.484375 138.234375 171.691406 C 136.828125 171.332031 135.425781 170.980469 134.023438 170.628906 C 132.621094 170.277344 131.21875 169.925781 129.816406 169.574219 C 129.804688 174.019531 129.792969 178.460938 129.785156 182.898438 C 129.777344 187.335938 129.769531 191.773438 129.761719 196.207031 C 128.699219 195.679688 127.640625 195.148438 126.582031 194.617188 C 125.523438 194.089844 124.464844 193.5625 123.40625 193.03125 C 123.429688 184.6875 123.457031 176.339844 123.484375 167.988281 C 123.507812 159.644531 123.539062 151.292969 123.566406 142.9375 C 124.613281 142.9375 125.667969 142.9375 126.71875 142.9375 C 127.765625 142.9375 128.820312 142.9375 129.871094 142.9375 C 129.863281 146.554688 129.855469 150.164062 129.847656 153.765625 C 129.839844 157.378906 129.832031 160.980469 129.824219 164.589844 C 131.234375 164.875 132.644531 165.167969 134.050781 165.453125 C 135.460938 165.738281 136.871094 166.03125 138.28125 166.3125 C 138.28125 162.417969 138.285156 158.53125 138.289062 154.632812 C 138.292969 150.738281 138.296875 146.839844 138.300781 142.9375 C 139.34375 142.9375 140.386719 142.9375 141.433594 142.9375 C 142.476562 142.9375 143.519531 142.9375 144.566406 142.9375 "/>
</g>
</svg>
