<?xml version="1.0" encoding="UTF-8"?>
<svg xmlns="http://www.w3.org/2000/svg" xmlns:xlink="http://www.w3.org/1999/xlink" width="4001" height="4001" viewBox="0 0 4001 4001">
<path fill-rule="evenodd" fill="rgb(9.008789%, 10.594177%, 16.479492%)" fill-opacity="1" d="M 1 0 L 4001 0 L 4001 4000 L 1 4000 L 1 0 "/>
<path fill-rule="evenodd" fill="rgb(80.46875%, 68.943787%, 38.035583%)" fill-opacity="1" d="M 1618.320312 2466.101562 L 1618.320312 1904.761719 L 1536.011719 1904.761719 L 1536.011719 2424.941406 L 1507.691406 2410.78125 L 1507.691406 1473.570312 L 2001 1473.570312 L 2001 1391.261719 L 1425.371094 1391.261719 L 1425.371094 2461.261719 L 1618.320312 2557.730469 L 1618.320312 2466.101562 "/>
<path fill-rule="evenodd" fill="rgb(80.076599%, 59.959412%, 19.993591%)" fill-opacity="1" d="M 2000.988281 1473.570312 L 2494.300781 1473.570312 L 2494.300781 2410.78125 L 2465.980469 2424.941406 L 2465.980469 1904.761719 L 2383.671875 1904.761719 L 2383.671875 2557.730469 L 2576.609375 2461.261719 C 2576.628906 2104.589844 2576.628906 1747.929688 2576.609375 1391.261719 L 2001 1391.261719 L 2000.988281 1473.570312 "/>
<path fill-rule="evenodd" fill="rgb(80.46875%, 68.943787%, 38.035583%)" fill-opacity="1" d="M 1702.820312 1634.449219 L 1959.839844 1634.449219 L 1959.839844 1665.671875 L 1719.800781 1665.671875 C 1669.109375 1665.671875 1623.050781 1687.570312 1589.679688 1722.859375 C 1559.648438 1754.609375 1539.878906 1797.230469 1536.21875 1844.5 L 1614.511719 1844.5 C 1617.859375 1819.960938 1628.800781 1797.878906 1644.710938 1781.058594 C 1664.011719 1760.648438 1690.589844 1747.980469 1719.800781 1747.980469 L 1959.839844 1747.980469 L 1959.839844 2725.660156 L 2001 2748.089844 L 2001 1552.140625 L 1702.820312 1552.140625 L 1702.820312 1634.449219 "/>
<path fill-rule="evenodd" fill="rgb(80.076599%, 59.959412%, 19.993591%)" fill-opacity="1" d="M 2282.199219 1665.671875 L 2042.160156 1665.671875 L 2042.160156 1634.449219 L 2299.179688 1634.449219 L 2299.179688 1552.140625 L 2001 1552.140625 L 2001 2748.089844 L 2042.160156 2725.660156 L 2042.160156 1747.980469 L 2282.199219 1747.980469 C 2311.410156 1747.980469 2337.988281 1760.648438 2357.289062 1781.058594 C 2373.199219 1797.878906 2384.140625 1819.960938 2387.488281 1844.5 L 2465.789062 1844.5 C 2462.121094 1797.230469 2442.351562 1754.609375 2412.320312 1722.859375 C 2378.960938 1687.570312 2332.890625 1665.671875 2282.199219 1665.671875 "/>
<path fill-rule="evenodd" fill="rgb(80.46875%, 68.943787%, 38.035583%)" fill-opacity="1" d="M 2001 1251.910156 L 1538.941406 1251.910156 L 1538.941406 1334.230469 L 2001 1334.230469 L 2001 1251.910156 "/>
<path fill-rule="evenodd" fill="rgb(80.076599%, 59.959412%, 19.993591%)" fill-opacity="1" d="M 2001 1251.910156 L 2001 1334.230469 L 2463.058594 1334.230469 L 2463.058594 1251.910156 L 2001 1251.910156 "/>
<path fill-rule="nonzero" fill="rgb(80.076599%, 59.959412%, 19.993591%)" fill-opacity="1" d="M 2158.421875 2373.769531 C 2158.46875 2423.621094 2158.511719 2473.628906 2158.558594 2523.46875 C 2158.601562 2573.320312 2158.640625 2623.328125 2158.699219 2673.171875 C 2144.558594 2680.210938 2130.410156 2687.328125 2116.300781 2694.371094 C 2102.191406 2701.410156 2088.050781 2708.449219 2073.941406 2715.488281 C 2073.941406 2580.679688 2073.941406 2445.789062 2073.941406 2310.980469 C 2073.941406 2176.171875 2073.941406 2041.191406 2073.941406 1906.300781 C 2087.929688 1906.300781 2101.960938 1906.300781 2115.960938 1906.300781 C 2129.960938 1906.300781 2143.988281 1906.300781 2158.019531 1906.300781 C 2158.078125 1970.308594 2158.128906 2034.238281 2158.191406 2098.160156 C 2158.238281 2162.011719 2158.300781 2225.851562 2158.359375 2289.78125 C 2177.070312 2221.96875 2195.601562 2155.628906 2214.46875 2091.039062 C 2232.910156 2027.941406 2251.789062 1966.339844 2270.410156 1906.300781 C 2284.25 1906.300781 2298.101562 1906.300781 2311.910156 1906.300781 C 2325.710938 1906.300781 2339.570312 1906.300781 2353.429688 1906.300781 C 2332.679688 1968.28125 2311.628906 2032.128906 2291.128906 2097.839844 C 2270.058594 2165.398438 2249.5 2235.078125 2228.640625 2306.53125 C 2249.808594 2355.160156 2270.738281 2402.328125 2292.289062 2447.730469 C 2313.191406 2491.75 2334.851562 2533.75 2356.191406 2574.371094 C 2342.140625 2581.410156 2328.078125 2588.449219 2314.050781 2595.488281 C 2300.03125 2602.53125 2286 2609.488281 2271.96875 2616.53125 C 2252.96875 2579.230469 2233.730469 2540.660156 2215.058594 2500.730469 C 2195.941406 2459.820312 2177.269531 2417.308594 2158.421875 2373.769531 "/>
<path fill-rule="nonzero" fill="rgb(80.46875%, 68.943787%, 38.035583%)" fill-opacity="1" d="M 1928.058594 1906.300781 C 1928.058594 2041.191406 1928.058594 2176.171875 1928.058594 2310.980469 C 1928.058594 2445.789062 1928.058594 2580.679688 1928.058594 2715.488281 C 1914.011719 2708.539062 1899.949219 2701.488281 1885.921875 2694.449219 C 1871.890625 2687.410156 1857.871094 2680.460938 1843.839844 2673.410156 C 1843.75 2609.488281 1843.691406 2545.558594 1843.671875 2481.640625 C 1843.640625 2417.710938 1843.609375 2353.699219 1843.578125 2289.78125 C 1824.839844 2285 1806.128906 2280.308594 1787.441406 2275.621094 C 1768.730469 2270.921875 1750.011719 2266.230469 1731.300781 2261.539062 C 1731.160156 2320.851562 1731.03125 2380.078125 1730.898438 2439.230469 C 1730.78125 2498.460938 1730.679688 2557.621094 1730.570312 2616.769531 C 1716.429688 2609.730469 1702.28125 2602.609375 1688.171875 2595.570312 C 1674.058594 2588.53125 1659.921875 2581.488281 1645.808594 2574.371094 C 1646.140625 2463.109375 1646.5 2351.761719 1646.851562 2240.421875 C 1647.199219 2129.148438 1647.578125 2017.730469 1647.949219 1906.300781 C 1661.949219 1906.300781 1675.980469 1906.300781 1689.980469 1906.300781 C 1703.980469 1906.300781 1718.011719 1906.300781 1732.058594 1906.300781 C 1731.921875 1954.53125 1731.820312 2002.679688 1731.71875 2050.738281 C 1731.621094 2098.890625 1731.53125 2146.949219 1731.441406 2195.101562 C 1750.210938 2198.898438 1769.039062 2202.789062 1787.808594 2206.589844 C 1806.578125 2210.398438 1825.398438 2214.28125 1844.199219 2218.078125 C 1844.230469 2166.128906 1844.28125 2114.261719 1844.320312 2062.308594 C 1844.359375 2010.359375 1844.398438 1958.328125 1844.460938 1906.300781 C 1858.371094 1906.300781 1872.308594 1906.300781 1886.230469 1906.300781 C 1900.148438 1906.300781 1914.089844 1906.300781 1928.058594 1906.300781 "/>
</svg>
