<?xml version="1.0" encoding="UTF-8"?>
<svg xmlns="http://www.w3.org/2000/svg" xmlns:xlink="http://www.w3.org/1999/xlink" width="4001" height="4002" viewBox="0 0 4001 4002">

<path fill-rule="evenodd" fill="rgb(61.914062%, 51.367188%, 47.068787%)" fill-opacity="1" d="M 1997.410156 2581.960938 L 1628.53125 2385.878906 C 1627.300781 2385.21875 1625.890625 2385.210938 1624.640625 2385.820312 C 1623.699219 2386.289062 1622.980469 2387.019531 1622.980469 2388.109375 L 1622.980469 2482.160156 C 1622.980469 2483.210938 1623.648438 2483.921875 1624.539062 2484.390625 C 1748.761719 2550.429688 1873.128906 2616.449219 1997.46875 2682.550781 C 1998.449219 2683.070312 1999.578125 2683.070312 2000.570312 2682.550781 C 2125.609375 2616.078125 2250.550781 2549.621094 2375.539062 2483.179688 C 2376.429688 2482.710938 2377.089844 2482 2377.089844 2480.949219 L 2377.089844 2386.898438 C 2377.089844 2385.808594 2376.371094 2385.070312 2375.429688 2384.609375 C 2374.179688 2384 2372.78125 2384.011719 2371.550781 2384.671875 L 2000.390625 2581.960938 C 1999.429688 2582.46875 1998.371094 2582.46875 1997.410156 2581.960938 "/>
<path fill-rule="nonzero" fill="rgb(61.914062%, 51.367188%, 47.068787%)" fill-opacity="1" d="M 2371.53125 1454.960938 C 2350.730469 1454.960938 2329.96875 1454.960938 2309.210938 1454.960938 C 2288.449219 1454.960938 2267.691406 1454.960938 2246.941406 1454.960938 C 2243.960938 1454.960938 2241.539062 1457.820312 2241.539062 1461.429688 C 2241.539062 1537.339844 2241.539062 1613.238281 2241.539062 1689.039062 C 2241.539062 1764.828125 2241.539062 1840.628906 2241.539062 1916.320312 C 2241.539062 1919.921875 2239.128906 1923.289062 2236.160156 1924.070312 C 2216.109375 1929.339844 2196.050781 1934.589844 2176.011719 1939.78125 C 2173.070312 1940.539062 2170.640625 1938.398438 2170.640625 1934.570312 C 2170.640625 1855.808594 2170.640625 1777.039062 2170.640625 1698.269531 C 2170.640625 1619.5 2170.640625 1540.628906 2170.640625 1461.761719 C 2170.640625 1457.929688 2168.210938 1454.960938 2165.230469 1454.960938 C 2144.441406 1454.960938 2123.648438 1454.960938 2102.859375 1454.960938 C 2082.058594 1454.960938 2061.269531 1454.960938 2040.480469 1454.960938 C 2037.539062 1454.960938 2035.109375 1458.148438 2035.109375 1462.179688 C 2035.109375 1636.808594 2035.109375 1811.429688 2035.109375 1985.949219 C 2035.109375 2160.480469 2035.109375 2335.101562 2035.109375 2509.628906 C 2035.109375 2513.449219 2037.558594 2515.300781 2040.480469 2513.761719 C 2061.261719 2502.78125 2082 2491.679688 2102.75 2480.648438 C 2123.511719 2469.601562 2144.28125 2458.679688 2165.058594 2447.628906 C 2168.039062 2446.050781 2170.46875 2441.898438 2170.46875 2438.390625 C 2170.46875 2363.128906 2170.46875 2287.859375 2170.46875 2212.601562 C 2170.46875 2137.339844 2170.46875 2061.96875 2170.46875 1986.589844 C 2170.46875 1982.878906 2172.890625 1979.460938 2175.839844 1978.628906 C 2195.871094 1972.980469 2215.941406 1967.328125 2235.960938 1961.648438 C 2239.121094 1960.75 2241.539062 1962.710938 2241.539062 1966.320312 C 2241.539062 2038.820312 2241.539062 2111.21875 2241.539062 2183.621094 C 2241.539062 2255.910156 2241.539062 2328.308594 2241.539062 2400.601562 C 2241.539062 2404.210938 2243.949219 2405.679688 2246.941406 2404.101562 C 2267.679688 2393.160156 2288.449219 2382.128906 2309.210938 2371.089844 C 2329.96875 2360.050781 2350.710938 2348.96875 2371.53125 2337.96875 C 2374.609375 2336.339844 2377.101562 2332.449219 2377.101562 2329.160156 C 2377.101562 2267.160156 2377.101562 2205.269531 2377.101562 2143.28125 C 2377.101562 2081.28125 2377.101562 2019.390625 2377.101562 1957.398438 C 2377.101562 1955.910156 2376.511719 1954.78125 2375.699219 1954 C 2363.648438 1942.46875 2351.671875 1930.660156 2339.71875 1918.539062 C 2337.960938 1916.761719 2337.949219 1913.429688 2339.71875 1910.691406 C 2351.660156 1892.199219 2363.730469 1873.980469 2375.699219 1855.808594 C 2376.589844 1854.460938 2377.101562 1852.941406 2377.101562 1851.558594 C 2377.101562 1786.480469 2377.101562 1721.308594 2377.101562 1656.230469 C 2377.101562 1591.050781 2377.101562 1525.980469 2377.101562 1460.800781 C 2377.101562 1457.609375 2374.628906 1454.960938 2371.53125 1454.960938 "/>
<path fill-rule="nonzero" fill="rgb(61.914062%, 51.367188%, 47.068787%)" fill-opacity="1" d="M 1823.820312 1939.609375 C 1803.820312 1934.378906 1783.828125 1929.121094 1763.871094 1923.890625 C 1760.75 1923.070312 1758.5 1919.859375 1758.5 1916.25 C 1758.5 1840.449219 1758.5 1764.660156 1758.5 1688.96875 C 1758.5 1613.171875 1758.5 1537.269531 1758.5 1461.371094 C 1758.5 1457.761719 1756.070312 1454.890625 1752.921875 1454.890625 C 1732.128906 1454.890625 1711.371094 1454.890625 1690.609375 1454.890625 C 1669.859375 1454.890625 1649.101562 1454.890625 1628.339844 1454.890625 C 1625.390625 1454.890625 1622.96875 1457.550781 1622.96875 1460.941406 C 1622.96875 1605.738281 1622.96875 1750.429688 1622.96875 1895.121094 C 1622.96875 2039.820312 1622.96875 2184.609375 1622.96875 2329.308594 C 1622.96875 2332.390625 1625.421875 2336.148438 1628.339844 2337.691406 C 1649.121094 2348.679688 1669.859375 2359.769531 1690.609375 2370.808594 C 1711.371094 2381.851562 1732.140625 2392.769531 1752.921875 2403.828125 C 1756.078125 2405.5 1758.5 2404.039062 1758.5 2400.640625 C 1758.5 2328.351562 1758.5 2255.839844 1758.5 2183.550781 C 1758.5 2111.148438 1758.5 2038.648438 1758.5 1966.25 C 1758.5 1962.640625 1760.738281 1960.578125 1763.871094 1961.46875 C 1783.820312 1967.160156 1803.808594 1972.75 1823.820312 1978.351562 C 1826.960938 1979.21875 1829.390625 1982.699219 1829.390625 1986.421875 C 1829.390625 2061.789062 1829.390625 2137.058594 1829.390625 2212.320312 C 1829.390625 2287.480469 1829.390625 2362.75 1829.390625 2437.898438 C 1829.390625 2441.621094 1831.820312 2445.769531 1834.789062 2447.351562 C 1855.550781 2458.398438 1876.308594 2469.328125 1897.070312 2480.371094 C 1917.828125 2491.410156 1938.570312 2502.488281 1959.378906 2513.488281 C 1962.46875 2515.121094 1964.960938 2513.378906 1964.960938 2509.351562 C 1964.960938 2334.820312 1964.960938 2160.308594 1964.960938 1985.78125 C 1964.960938 1811.261719 1964.960938 1636.738281 1964.960938 1462.109375 C 1964.960938 1458.078125 1962.488281 1454.890625 1959.378906 1454.890625 C 1938.589844 1454.890625 1917.828125 1454.890625 1897.070312 1454.890625 C 1876.308594 1454.890625 1855.550781 1454.890625 1834.789062 1454.890625 C 1831.820312 1454.890625 1829.390625 1457.871094 1829.390625 1461.691406 C 1829.390625 1540.558594 1829.390625 1619.441406 1829.390625 1698.199219 C 1829.390625 1776.96875 1829.390625 1855.738281 1829.390625 1934.511719 C 1829.390625 1938.121094 1826.96875 1940.429688 1823.820312 1939.609375 "/>
<path fill-rule="evenodd" fill="rgb(61.914062%, 51.367188%, 47.068787%)" fill-opacity="1" d="M 1396.621094 1318.921875 C 1395.820312 1318.921875 1395.25 1319.25 1394.828125 1319.960938 C 1394.421875 1320.679688 1394.390625 1321.371094 1394.761719 1322.109375 L 1419.640625 1372.699219 C 1420.011719 1373.449219 1420.578125 1373.828125 1421.390625 1373.878906 C 1439.589844 1374.988281 1454.839844 1389.261719 1457.839844 1408.039062 C 1458.019531 1409.121094 1458.859375 1409.871094 1459.910156 1409.871094 C 1820 1409.871094 2180.078125 1409.871094 2540.171875 1409.871094 C 2541.21875 1409.871094 2542.058594 1409.121094 2542.230469 1408.039062 C 2545.238281 1389.261719 2560.480469 1374.960938 2578.691406 1373.878906 C 2579.5 1373.828125 2580.070312 1373.441406 2580.441406 1372.691406 L 2605.320312 1322.109375 C 2605.679688 1321.371094 2605.660156 1320.679688 2605.238281 1319.960938 C 2604.828125 1319.25 2604.25 1318.921875 2603.449219 1318.921875 C 2201.179688 1318.921875 1798.898438 1318.921875 1396.621094 1318.921875 "/>
<path fill-rule="evenodd" fill="rgb(61.914062%, 51.367188%, 47.068787%)" fill-opacity="1" d="M 1480.851562 1454.890625 L 1599.398438 1454.890625 L 1599.398438 1490.25 C 1595.058594 1488.699219 1590.308594 1487.851562 1585.351562 1487.851562 L 1499.660156 1487.851562 C 1489.308594 1487.851562 1480.851562 1480.429688 1480.851562 1471.371094 Z M 2400.679688 1454.890625 L 2519.21875 1454.890625 L 2519.21875 1471.371094 C 2519.21875 1480.429688 2510.761719 1487.851562 2500.410156 1487.851562 L 2414.71875 1487.851562 C 2409.761719 1487.851562 2405.019531 1488.699219 2400.679688 1490.25 L 2400.679688 1454.890625 "/>
</svg>
